<?xml version="1.0" standalone="no"?>
<!DOCTYPE svg PUBLIC "-//W3C//DTD SVG 1.1//EN" "http://www.w3.org/Graphics/SVG/1.1/DTD/svg11.dtd" >
<svg xmlns="http://www.w3.org/2000/svg" xmlns:xlink="http://www.w3.org/1999/xlink" version="1.1">
<metadata>
Created by FontForge 20201107 at Sun Nov 25 00:33:01 2018
 By 
Typeface (c) Darrell Flood. 2018. All Rights Reserved
</metadata>
<defs>
<font id="ThisIsTheFuture" horiz-adv-x="1300" >
  <font-face 
    font-family="This Is The Future"
    font-weight="400"
    font-stretch="normal"
    units-per-em="2048"
    panose-1="2 0 5 0 0 0 0 2 0 0"
    ascent="1638"
    descent="-410"
    x-height="2000"
    cap-height="2000"
    bbox="50 -400 2150 2100"
    underline-thickness="150"
    underline-position="-292"
    unicode-range="U+001D-2212"
  />
<missing-glyph horiz-adv-x="1500" 
 />
    <glyph glyph-name=".notdef" horiz-adv-x="1500" 
 />
    <glyph glyph-name=".null" horiz-adv-x="0" 
 />
    <glyph glyph-name=".null" horiz-adv-x="0" 
 />
    <glyph glyph-name="nonmarkingreturn" horiz-adv-x="508" 
 />
    <glyph glyph-name="space" unicode=" " horiz-adv-x="508" 
 />
    <glyph glyph-name="space" unicode="&#xa0;" horiz-adv-x="508" 
 />
    <glyph glyph-name="exclam" unicode="!" horiz-adv-x="600" 
d="M50 500v1500h500v-1500h-500zM477 327q73 -73 73 -177t-73 -177t-177 -73t-177 73t-73 177t73 177t177 73t177 -73z" />
    <glyph glyph-name="quotedbl" unicode="&#x22;" horiz-adv-x="1000" 
d="M450 2000v-600h-400v600h400zM950 2000v-600h-400v600h400z" />
    <glyph glyph-name="numbersign" unicode="#" horiz-adv-x="1500" 
d="M150 800v300h-100v500h100v400h500v-400h200v400h500v-400h100v-500h-100v-300h100v-500h-100v-400h-500v400h-200v-400h-500v400h-100v500h100zM650 1100v-300h200v300h-200z" />
    <glyph glyph-name="dollar" unicode="$" 
d="M350 1991v109h500v-100h300l-100 -500h-400q-100 0 -100 -100v-100q0 -100 100 -100h200q400 0 400 -500v-300q0 -500 -400 -500v-100h-500v100h-200l100 500h400q100 0 100 100v100q0 100 -100 100h-200q-400 0 -400 500v300q0 433 300 491z" />
    <glyph glyph-name="percent" unicode="%" horiz-adv-x="1500" 
d="M1450 2000l-900 -2100h-500l900 2100h500zM1377 427q73 -73 73 -177t-73 -177t-177 -73t-177 73t-73 177t73 177t177 73t177 -73zM477 1827q73 -73 73 -177t-73 -177t-177 -73t-177 73t-73 177t73 177t177 73t177 -73z" />
    <glyph glyph-name="ampersand" unicode="&#x26;" horiz-adv-x="1499" 
d="M750 1200v300h-200v-300h200zM750 400v300h-200v-300h200zM450 -100q-400 0 -400 400v200q0 400 299 450q-299 50 -299 447v203q0 400 400 400h400q400 0 400 -400v-200q-1 -400 -301 -450q301 -50 301 -450v-100h199l-100 -500h-899z" />
    <glyph glyph-name="quotesingle" unicode="'" horiz-adv-x="500" 
d="M450 2000v-600h-400v600h400z" />
    <glyph glyph-name="parenleft" unicode="(" horiz-adv-x="800" 
d="M750 400v-500h-300q-400 0 -400 400v1300q0 400 400 400h300v-500h-200v-1100h200z" />
    <glyph glyph-name="parenright" unicode=")" horiz-adv-x="800" 
d="M250 400v1100h-200v500h300q400 0 400 -400v-1300q0 -400 -400 -400h-300v500h200z" />
    <glyph glyph-name="asterisk" unicode="*" horiz-adv-x="889" 
d="M344 1777v223h200v-223l192 115l103 -172l-200 -120l200 -120l-103 -172l-192 115v-223h-200v223l-191 -115l-103 172l200 120l-200 120l103 172z" />
    <glyph glyph-name="plus" unicode="+" horiz-adv-x="1200" 
d="M850 1200h300v-500h-300v-300h-500v300h-300v500h300v300h500v-300z" />
    <glyph glyph-name="comma" unicode="," horiz-adv-x="750" 
d="M700 300l-250 -700h-400l150 700h500z" />
    <glyph glyph-name="hyphen" unicode="-" horiz-adv-x="800" 
d="M750 1200v-500h-700v500h700z" />
    <glyph glyph-name="hyphen" unicode="&#xad;" horiz-adv-x="800" 
d="M750 1200v-500h-700v500h700z" />
    <glyph glyph-name="period" unicode="." horiz-adv-x="600" 
d="M477 327q73 -73 73 -177t-73 -177t-177 -73t-177 73t-73 177t73 177t177 73t177 -73z" />
    <glyph glyph-name="slash" unicode="/" horiz-adv-x="1500" 
d="M1450 2000l-900 -2100h-500l900 2100h500z" />
    <glyph glyph-name="zero" unicode="0" 
d="M50 300v1300q0 400 400 400h400q400 0 400 -400v-1300q0 -400 -400 -400h-400q-400 0 -400 400zM550 1500v-1100h200v1100h-200z" />
    <glyph glyph-name="one" unicode="1" horiz-adv-x="700" 
d="M650 2000v-2100h-500v1600h-100l100 500h500z" />
    <glyph glyph-name="two" unicode="2" 
d="M1250 1600v-400q0 -500 -400 -500h-200q-100 0 -100 -100v-200h700l-100 -500h-1100v800q0 500 400 500h200q100 0 100 100v100q0 100 -100 100h-600v500h800q400 0 400 -400z" />
    <glyph glyph-name="three" unicode="3" 
d="M50 1500v500h800q400 0 400 -400v-200q0 -400 -300 -450q300 -50 300 -450v-200q0 -400 -400 -400h-800v500h600q100 0 100 100v200h-500l100 500h400v200q0 100 -100 100h-600z" />
    <glyph glyph-name="four" unicode="4" horiz-adv-x="1400" 
d="M1250 500v-600h-500v600h-700l150 1500h500l-95 -1000h145v1000h500v-1000h100v-500h-100z" />
    <glyph glyph-name="five" unicode="5" 
d="M850 -100h-800l100 500h500q100 0 100 100v100q0 100 -100 100h-200q-400 0 -400 500v800h1200v-500h-700v-200q0 -100 100 -100h200q400 0 400 -500v-400q0 -400 -400 -400z" />
    <glyph glyph-name="six" unicode="6" 
d="M550 700v-300h200v300h-200zM50 1600q0 400 400 400h800l-100 -500h-600v-300h300q400 0 400 -400v-500q0 -400 -400 -400h-400q-400 0 -400 400v1300z" />
    <glyph glyph-name="seven" unicode="7" horiz-adv-x="1200" 
d="M800 -100h-550l250 1600h-450v500h1100z" />
    <glyph glyph-name="eight" unicode="8" 
d="M750 1200v300h-200v-300h200zM850 2000q400 0 400 -400v-200q-1 -400 -301 -450q301 -50 301 -450v-200q0 -400 -400 -400h-400q-400 0 -400 400v200q0 400 299 450q-299 50 -299 447v203q0 400 400 400h400zM750 400v300h-200v-300h200z" />
    <glyph glyph-name="nine" unicode="9" 
d="M750 1200v300h-200v-300h200zM1250 300q0 -400 -400 -400h-800l100 500h600v300h-300q-400 0 -400 400v500q0 400 400 400h400q400 0 400 -400v-1300z" />
    <glyph glyph-name="colon" unicode=":" horiz-adv-x="600" 
d="M477 327q73 -73 73 -177t-73 -177t-177 -73t-177 73t-73 177t73 177t177 73t177 -73zM477 927q73 -73 73 -177t-73 -177t-177 -73t-177 73t-73 177t73 177t177 73t177 -73z" />
    <glyph glyph-name="semicolon" unicode=";" horiz-adv-x="800" 
d="M750 400l-300 -600h-400l200 600h500zM677 927q73 -73 73 -177t-73 -177t-177 -73t-177 73t-73 177t73 177t177 73t177 -73z" />
    <glyph glyph-name="semicolon" unicode="&#x37e;" horiz-adv-x="800" 
d="M750 400l-300 -600h-400l200 600h500zM677 927q73 -73 73 -177t-73 -177t-177 -73t-177 73t-73 177t73 177t177 73t177 -73z" />
    <glyph glyph-name="less" unicode="&#x3c;" horiz-adv-x="1200" 
d="M50 900l1100 500v-500l-600 -200l600 -200v-500l-1100 500v400z" />
    <glyph glyph-name="equal" unicode="=" horiz-adv-x="1100" 
d="M1050 1200v-400h-1000v400h1000zM1050 600v-400h-1000v400h1000z" />
    <glyph glyph-name="greater" unicode="&#x3e;" horiz-adv-x="1200" 
d="M1150 500l-1100 -500v500l600 200l-600 200v500l1100 -500v-400z" />
    <glyph glyph-name="question" unicode="?" 
d="M750 150q0 -104 -73 -177t-177 -73t-177 73t-73 177t73 177t177 73t177 -73t73 -177zM50 1600q0 400 400 400h400q400 0 400 -400v-500q0 -400 -400 -400q-100 0 -100 -100v-100h-500v300q0 400 400 400h100v200q0 100 -100 100h-100v-200h-500v300z" />
    <glyph glyph-name="at" unicode="@" horiz-adv-x="2115" 
d="M1079 551q-113 -95 -287 -95q-162 0 -239 94q-54 66 -54 163q0 43 10 93q54 257 268.5 455t465.5 198q129 0 352 -110q-160 -336 -187.5 -417t-39.5 -136q-5 -20 -5 -35q0 -28 19 -28q104 0 201.5 132t135.5 317q26 88 26 160q0 123 -74 197q-118 118 -328 118
q-333 0 -601.5 -250t-348.5 -630q-17 -80 -17 -151q0 -146 74 -248q110 -150 337 -150q120 0 247.5 41.5t238.5 143.5l132 -235q-155 -114 -347 -174t-358 -60q-353 0 -527 224q-123 156 -123 378q0 95 23 203q108 510 491 851.5t866 341.5q348 0 516 -193
q119 -136 119 -340q0 -87 -21 -186q-63 -294 -270.5 -523.5t-465.5 -229.5q-175 0 -229 81zM1182 1210q-100 0 -203 -123t-134 -267q-5 -21 -5 -39q0 -54 49 -54q67 0 128.5 57t102 156t102.5 257q-10 13 -40 13z" />
    <glyph glyph-name="A" unicode="A" horiz-adv-x="1500" 
d="M842 600l-92 600l-92 -600h184zM1450 -100h-500l-31 200h-338l-31 -200h-500l400 2100h600z" />
    <glyph glyph-name="B" unicode="B" 
d="M750 1200v300h-200v-300h200zM850 2000q400 0 400 -400v-200q0 -400 -300 -450q300 -50 300 -450v-200q0 -400 -400 -400h-800v2100h800zM750 400v300h-200v-300h200z" />
    <glyph glyph-name="C" unicode="C" 
d="M750 1300v200h-200v-1100h200v200h500v-300q0 -400 -400 -400h-400q-400 0 -400 400v1300q0 400 400 400h400q400 0 400 -400v-300h-500z" />
    <glyph glyph-name="D" unicode="D" 
d="M50 -100v2100h800q400 0 400 -400v-1300q0 -400 -400 -400h-800zM550 1500v-1100h200v1100h-200z" />
    <glyph glyph-name="E" unicode="E" horiz-adv-x="1100" 
d="M50 2000h1000v-500h-500v-300h500l-100 -500h-400v-300h500v-500h-1000v2100z" />
    <glyph glyph-name="F" unicode="F" horiz-adv-x="1100" 
d="M50 2000h1000v-500h-500v-300h500l-100 -500h-400v-800h-500v2100z" />
    <glyph glyph-name="G" unicode="G" 
d="M1250 1200v-900q0 -400 -400 -400h-400q-400 0 -400 400v1300q0 400 400 400h800l-100 -500h-600v-1100h200v300h-100v500h600z" />
    <glyph glyph-name="H" unicode="H" 
d="M50 2000h500v-800h200v800h500v-2100h-500v800h-200v-800h-500v2100z" />
    <glyph glyph-name="I" unicode="I" horiz-adv-x="600" 
d="M550 2000v-2100h-500v2100h500z" />
    <glyph glyph-name="J" unicode="J" horiz-adv-x="900" 
d="M50 400h300v1600h500v-1700q0 -400 -400 -400h-400v500z" />
    <glyph glyph-name="K" unicode="K" 
d="M550 700v-800h-500v2100h500v-800l200 800h500l-249 -1050l249 -1050h-500z" />
    <glyph glyph-name="L" unicode="L" horiz-adv-x="1000" 
d="M50 2000h500v-1600h400l-100 -500h-800v2100z" />
    <glyph glyph-name="M" unicode="M" horiz-adv-x="1700" 
d="M1650 2000v-2100h-500v967l-200 -967h-200l-200 964v-964h-500v2100h600l200 -1100l200 1100h600z" />
    <glyph glyph-name="N" unicode="N" 
d="M550 700v-800h-500v2100h400l300 -800v800h500v-2100h-400z" />
    <glyph glyph-name="O" unicode="O" 
d="M50 300v1300q0 400 400 400h400q400 0 400 -400v-1300q0 -400 -400 -400h-400q-400 0 -400 400zM550 1500v-1100h200v1100h-200z" />
    <glyph glyph-name="P" unicode="P" 
d="M750 1200v300h-200v-300h200zM850 700h-300v-800h-500v2100h800q400 0 400 -400v-500q0 -400 -400 -400z" />
    <glyph glyph-name="Q" unicode="Q" horiz-adv-x="1500" 
d="M550 1500v-1100h200v1100h-200zM450 -100q-400 0 -400 400v1300q0 400 400 400h400q400 0 400 -400v-1200h200l-100 -500h-900z" />
    <glyph glyph-name="R" unicode="R" 
d="M750 1200v300h-200v-300h200zM550 700v-800h-500v2100h800q400 0 400 -400v-400q0 -400 -200 -400l200 -900h-500z" />
    <glyph glyph-name="S" unicode="S" 
d="M450 2000h700l-100 -500h-400q-100 0 -100 -100v-100q0 -100 100 -100h200q400 0 400 -500v-300q0 -500 -400 -500h-700l100 500h400q100 0 100 100v100q0 100 -100 100h-200q-400 0 -400 500v300q0 500 400 500z" />
    <glyph glyph-name="T" unicode="T" horiz-adv-x="1200" 
d="M850 1500v-1600h-500v1600h-300v500h1100l-100 -500h-200z" />
    <glyph glyph-name="U" unicode="U" 
d="M1250 2000v-1700q0 -400 -400 -400h-400q-400 0 -400 400v1700h500v-1600h200v1600h500z" />
    <glyph glyph-name="V" unicode="V" horiz-adv-x="1500" 
d="M550 2000l200 -1300l200 1300h500l-400 -2100h-600l-400 2100h500z" />
    <glyph glyph-name="W" unicode="W" horiz-adv-x="2200" 
d="M1100 500l-150 -600h-500l-400 2100h500l200 -1300l200 1300h300l200 -1300l200 1300h500l-400 -2100h-500z" />
    <glyph glyph-name="X" unicode="X" horiz-adv-x="1500" 
d="M500 950l-450 1050h500l200 -467l200 467h500l-450 -1050l450 -1050h-500l-200 467l-200 -467h-500z" />
    <glyph glyph-name="Y" unicode="Y" horiz-adv-x="1500" 
d="M501 800l-451 1200h500l200 -500l200 500h500l-449 -1200v-900h-500v900z" />
    <glyph glyph-name="Z" unicode="Z" horiz-adv-x="1200" 
d="M1150 2000v-500l-600 -1100h600v-500h-1100v500l600 1100h-600v500h1100z" />
    <glyph glyph-name="bracketleft" unicode="[" horiz-adv-x="800" 
d="M750 400v-500h-700v2100h700v-500h-200v-1100h200z" />
    <glyph glyph-name="backslash" unicode="\" horiz-adv-x="1500" 
d="M550 2000l900 -2100h-500l-900 2100h500z" />
    <glyph glyph-name="bracketright" unicode="]" horiz-adv-x="800" 
d="M250 400v1100h-200v500h700v-2100h-700v500h200z" />
    <glyph glyph-name="asciicircum" unicode="^" horiz-adv-x="1100" 
d="M1050 1400l-300 -200l-200 247l-200 -247l-300 200l500 600z" />
    <glyph glyph-name="underscore" unicode="_" 
d="M1250 400v-500h-1200v500h1200z" />
    <glyph glyph-name="grave" unicode="`" horiz-adv-x="700" 
d="M50 2000h400l200 -500h-400z" />
    <glyph glyph-name="a" unicode="a" horiz-adv-x="1500" 
d="M842 600l-92 600l-92 -600h184zM1450 -100h-500l-31 200h-338l-31 -200h-500l400 2100h600z" />
    <glyph glyph-name="b" unicode="b" 
d="M750 1200v300h-200v-300h200zM850 2000q400 0 400 -400v-200q0 -400 -300 -450q300 -50 300 -450v-200q0 -400 -400 -400h-800v2100h800zM750 400v300h-200v-300h200z" />
    <glyph glyph-name="c" unicode="c" 
d="M750 1300v200h-200v-1100h200v200h500v-300q0 -400 -400 -400h-400q-400 0 -400 400v1300q0 400 400 400h400q400 0 400 -400v-300h-500z" />
    <glyph glyph-name="d" unicode="d" 
d="M50 -100v2100h800q400 0 400 -400v-1300q0 -400 -400 -400h-800zM550 1500v-1100h200v1100h-200z" />
    <glyph glyph-name="e" unicode="e" horiz-adv-x="1100" 
d="M50 2000h1000v-500h-500v-300h500l-100 -500h-400v-300h500v-500h-1000v2100z" />
    <glyph glyph-name="f" unicode="f" horiz-adv-x="1100" 
d="M50 2000h1000v-500h-500v-300h500l-100 -500h-400v-800h-500v2100z" />
    <glyph glyph-name="g" unicode="g" 
d="M1250 1200v-900q0 -400 -400 -400h-400q-400 0 -400 400v1300q0 400 400 400h800l-100 -500h-600v-1100h200v300h-100v500h600z" />
    <glyph glyph-name="h" unicode="h" 
d="M50 2000h500v-800h200v800h500v-2100h-500v800h-200v-800h-500v2100z" />
    <glyph glyph-name="i" unicode="i" horiz-adv-x="600" 
d="M550 2000v-2100h-500v2100h500z" />
    <glyph glyph-name="j" unicode="j" horiz-adv-x="900" 
d="M50 400h300v1600h500v-1700q0 -400 -400 -400h-400v500z" />
    <glyph glyph-name="k" unicode="k" 
d="M550 700v-800h-500v2100h500v-800l200 800h500l-249 -1050l249 -1050h-500z" />
    <glyph glyph-name="l" unicode="l" horiz-adv-x="1000" 
d="M50 2000h500v-1600h400l-100 -500h-800v2100z" />
    <glyph glyph-name="m" unicode="m" horiz-adv-x="1700" 
d="M1650 2000v-2100h-500v967l-200 -967h-200l-200 964v-964h-500v2100h600l200 -1100l200 1100h600z" />
    <glyph glyph-name="n" unicode="n" 
d="M550 700v-800h-500v2100h400l300 -800v800h500v-2100h-400z" />
    <glyph glyph-name="o" unicode="o" 
d="M50 300v1300q0 400 400 400h400q400 0 400 -400v-1300q0 -400 -400 -400h-400q-400 0 -400 400zM550 1500v-1100h200v1100h-200z" />
    <glyph glyph-name="p" unicode="p" 
d="M750 1200v300h-200v-300h200zM850 700h-300v-800h-500v2100h800q400 0 400 -400v-500q0 -400 -400 -400z" />
    <glyph glyph-name="q" unicode="q" horiz-adv-x="1500" 
d="M550 1500v-1100h200v1100h-200zM450 -100q-400 0 -400 400v1300q0 400 400 400h400q400 0 400 -400v-1200h200l-100 -500h-900z" />
    <glyph glyph-name="r" unicode="r" 
d="M750 1200v300h-200v-300h200zM550 700v-800h-500v2100h800q400 0 400 -400v-400q0 -400 -200 -400l200 -900h-500z" />
    <glyph glyph-name="s" unicode="s" 
d="M450 2000h700l-100 -500h-400q-100 0 -100 -100v-100q0 -100 100 -100h200q400 0 400 -500v-300q0 -500 -400 -500h-700l100 500h400q100 0 100 100v100q0 100 -100 100h-200q-400 0 -400 500v300q0 500 400 500z" />
    <glyph glyph-name="t" unicode="t" horiz-adv-x="1200" 
d="M850 1500v-1600h-500v1600h-300v500h1100l-100 -500h-200z" />
    <glyph glyph-name="u" unicode="u" 
d="M1250 2000v-1700q0 -400 -400 -400h-400q-400 0 -400 400v1700h500v-1600h200v1600h500z" />
    <glyph glyph-name="v" unicode="v" horiz-adv-x="1500" 
d="M550 2000l200 -1300l200 1300h500l-400 -2100h-600l-400 2100h500z" />
    <glyph glyph-name="w" unicode="w" horiz-adv-x="2200" 
d="M1100 500l-150 -600h-500l-400 2100h500l200 -1300l200 1300h300l200 -1300l200 1300h500l-400 -2100h-500z" />
    <glyph glyph-name="x" unicode="x" horiz-adv-x="1500" 
d="M500 950l-450 1050h500l200 -467l200 467h500l-450 -1050l450 -1050h-500l-200 467l-200 -467h-500z" />
    <glyph glyph-name="y" unicode="y" horiz-adv-x="1500" 
d="M501 800l-451 1200h500l200 -500l200 500h500l-449 -1200v-900h-500v900z" />
    <glyph glyph-name="z" unicode="z" horiz-adv-x="1200" 
d="M1150 2000v-500l-600 -1100h600v-500h-1100v500l600 1100h-600v500h1100z" />
    <glyph glyph-name="braceleft" unicode="{" horiz-adv-x="900" 
d="M150 1200v400q0 400 400 400h300v-500h-200v-1100h200v-500h-300q-400 0 -400 400v400h-100v500h100z" />
    <glyph glyph-name="bar" unicode="|" horiz-adv-x="500" 
d="M450 2000v-2100h-400v2100h400z" />
    <glyph glyph-name="braceright" unicode="}" horiz-adv-x="900" 
d="M750 700v-400q0 -400 -400 -400h-300v500h200v1100h-200v500h300q400 0 400 -400v-400h100v-500h-100z" />
    <glyph glyph-name="asciitilde" unicode="~" horiz-adv-x="800" 
d="M750 1200v-500q-100 50 -187 50q-88 0 -163 -50t-162 -50q-88 0 -188 50v500q100 -50 188 -50q87 0 162 50t163 50q87 0 187 -50z" />
    <glyph glyph-name="sterling" unicode="&#xa3;" horiz-adv-x="1400" 
d="M150 1200v400q0 400 400 400h400q400 0 400 -400v-300h-500v200h-200v-300h200v-500h-200v-300h700v-500h-1200v800h-100v500h100z" />
    <glyph glyph-name="yen" unicode="&#xa5;" horiz-adv-x="1500" 
d="M501 600v200l-451 1200h500l200 -500l200 500h500l-449 -1200v-200h249v-500h-249v-200h-500v200h-251v500h251z" />
    <glyph glyph-name="acute" unicode="&#xb4;" horiz-adv-x="700" 
d="M450 1500h-400l200 500h400z" />
    <glyph glyph-name="divide" unicode="&#xf7;" horiz-adv-x="1100" 
d="M1050 1100v-500h-1000v500h1000zM727 427q73 -73 73 -177t-73 -177t-177 -73t-177 73t-73 177t73 177t177 73t177 -73zM727 1627q73 -73 73 -177t-73 -177t-177 -73t-177 73t-73 177t73 177t177 73t177 -73z" />
    <glyph glyph-name="circumflex" unicode="&#x2c6;" horiz-adv-x="1100" 
d="M1050 1400l-300 -200l-200 247l-200 -247l-300 200l500 600z" />
    <glyph glyph-name="tilde" unicode="&#x2dc;" horiz-adv-x="800" 
d="M750 1950v-500q-100 50 -187 50q-88 0 -163 -50t-162 -50q-88 0 -188 50v500q100 -50 188 -50q87 0 162 50t163 50q87 0 187 -50z" />
    <glyph glyph-name="hungarumlaut" unicode="&#x2dd;" horiz-adv-x="1246" 
d="M450 1500h-400l200 500h400zM996 1500h-400l200 500h400z" />
    <glyph glyph-name="endash" unicode="&#x2013;" horiz-adv-x="1100" 
d="M1050 1100v-400h-1000v400h1000z" />
    <glyph glyph-name="emdash" unicode="&#x2014;" horiz-adv-x="1999" 
d="M1949 1100v-400h-1899v400h1899z" />
    <glyph glyph-name="quoteleft" unicode="&#x2018;" horiz-adv-x="500" 
d="M450 2000v-600h-400v600h400z" />
    <glyph glyph-name="quoteright" unicode="&#x2019;" horiz-adv-x="500" 
d="M450 2000v-600h-400v600h400z" />
    <glyph glyph-name="quotesinglbase" unicode="&#x201a;" horiz-adv-x="500" 
d="M450 200v-600h-400v600h400z" />
    <glyph glyph-name="quotedblleft" unicode="&#x201c;" horiz-adv-x="1000" 
d="M450 2000v-600h-400v600h400zM950 2000v-600h-400v600h400z" />
    <glyph glyph-name="quotedblright" unicode="&#x201d;" horiz-adv-x="1000" 
d="M450 2000v-600h-400v600h400zM950 2000v-600h-400v600h400z" />
    <glyph glyph-name="quotedblbase" unicode="&#x201e;" horiz-adv-x="1000" 
d="M450 200v-600h-400v600h400zM950 200v-600h-400v600h400z" />
    <glyph glyph-name="bullet" unicode="&#x2022;" horiz-adv-x="600" 
d="M477 927q73 -73 73 -177t-73 -177t-177 -73t-177 73t-73 177t73 177t177 73t177 -73z" />
    <glyph glyph-name="ellipsis" unicode="&#x2026;" horiz-adv-x="1799" 
d="M477 327q73 -73 73 -177t-73 -177t-177 -73t-177 73t-73 177t73 177t177 73t177 -73zM1079 327q73 -73 73 -177t-73 -177t-177 -73t-177 73t-73 177t73 177t177 73t177 -73zM1676 327q73 -73 73 -177t-73 -177t-177 -73t-177 73t-73 177t73 177t177 73t177 -73z" />
    <glyph glyph-name="guilsinglleft" unicode="&#x2039;" horiz-adv-x="1200" 
d="M50 900l1100 500v-400l-700 -300l700 -300v-400l-1100 500v400z" />
    <glyph glyph-name="guilsinglright" unicode="&#x203a;" horiz-adv-x="1200" 
d="M1150 500l-1100 -500v400l700 300l-700 300v400l1100 -500v-400z" />
    <glyph glyph-name="Euro" unicode="&#x20ac;" horiz-adv-x="1400" 
d="M150 1200v400q0 400 400 400h400q400 0 400 -400v-300h-500v200h-200v-300h200v-500h-200v-300h200v200h500v-300q0 -400 -400 -400h-400q-400 0 -400 400v400h-100v500h100z" />
    <glyph glyph-name="trademark" unicode="&#x2122;" horiz-adv-x="1174" 
d="M353 1258v-358h-143v358h-160v143h465v-143h-162zM1124 1401v-501h-143v239l-72 -239h-125l-89 238v-238h-143v501h178l108 -286l107 286h179z" />
    <glyph glyph-name="minus" unicode="&#x2212;" horiz-adv-x="1100" 
d="M1050 1100v-500h-1000v500h1000z" />
    </font>
</defs>
</svg>
