<?xml version="1.0" encoding="UTF-8"?>
<svg id="fr" xmlns="http://www.w3.org/2000/svg" version="1.1" viewBox="0 0 766.4 655.9">
  <defs>
    <style>
      .cls-1 {
        fill: none;
        stroke: #6623ff;
        stroke-miterlimit: 10;
        stroke-width: 6px;
      }
    </style>
  </defs>
  <path class="cls-1" d="M718.5,370.9c-2.1,9-11.8,13.2-18.3,19-7.2,7.1-12.7,15.4-16.8,24.5-5,12.9-13.9,7.4-23.9,6.6-16.3.9-24.6,19.7-30.8,32.9-4.5,12.7-12.1,23.8-15.7,36.8-3.9,12.4-1.6,25.8,4.5,37.2,5.8,9.2,12.7,18.8,14.9,29.4,3.1,16.9-4.9,34.5-23.5,36.3-9.4,1.7-17.4,4.2-26,6.6-7.6,2.7-18.6,7-24.8,0-3.8-5.6-5.3-13.1-10.2-18-8.7-8.3-16.3-17.1-26.1-24.5-7.6-4.9-16.6-8-23.5-14.1-6.6-5.4-13.3-12-21.7-14.8-7.2-2.4-16.8-3.9-20.8-8.9-3.4-3.9-3.3-9.8-3.5-14.9,0-5.4-1.3-10.7-2.9-15.6-4.4-12.8-8-25.2-2.6-38.5,1.7-6.3,6.2-16.6,1.3-21.6-3.2-2.3-9.8.4-13.8,4.1-8.7,7.7-10.1,20.6-17.4,29.4-7.1,9.1-21.8,15.4-34.2,17.7-10.4,1.6-21.8-.9-32.4-2.4-8.3-1.2-21.2-3.7-21.5-13.7,0-5.7,2.8-10.9,4.2-16.3,4.1-12.3-9.2-21.3-5.2-33.9,1-6.9,6.9-17.9.6-22.8-10.1-7.1-18.8-17.7-32.1-18.4-8.4-1-18-1.4-26.8-1-10.6,0-23.2,7.5-26.9-6.4-2.4-7.1-3.2-17.2-7.1-23.6-2.9-5.2-8.1-8.1-13-11.1-11.1-7.1-21.6-4.3-33.5-5.7-15.6-2.4-18.9-23-20.8-36.6-2.7-12.2-6.7-25.6-17.3-32.9-20.6-14.4-34.4,12.4-52.5,10.2-9.7-2.4-15.6-11.6-22.8-17.9-6.2-6.1-13.2-11.6-17.6-19.2-5.7-10-3-23.1-5.9-34.1-1.4-7.9-5.1-16.4-5-24,.3-13.3,13.5-20.3,23.9-26.1,8.1-4.6,16.1-9.6,23.9-14.8,25.8-16,51-38.5,81.8-42.9,4.4,0,8.4,1.5,10.9,4.9,3.2,4.1,5.3,11.4,9.4,16.1,14.1,15.1,23.4-12.8,51.7,1.1,11.3,5.2,20.2,16.4,33.3,15.6,16.3-2,31.5-10.1,44-20.9,6.3-5.7,11.3-13.6,18.6-18,5.7-3.6,14.2-3.1,19.4-4.7,2.8-.8,4.3-2.7,5.3-5.1,1.9-4.9,3.1-14.1,9.3-17.7,11.6-7.1,22.5,6.8,34.3,5.4,6.3-.8,12.9-6.8,18.5-9.8,3.3-2,8-3.1,10.5.4,2.4,3.3,1.3,8.8,2.9,12.3.8,2.1,4,3.7,7,3.8,10,1.7,19.9-6,28-11,13.2-7.5,13.7,24,22.5,30.6,2.2,2.5,4.5,4.8,6.8,7.1,12.9,14,23.8,15.5,41.6,11.2,6.6-1.1,13.5-.6,19,3.3,5.5,3.6,10.6,10.7,17.1,15,8.2,5.7,19.2,7.2,27.5,12.3,15.7,9.6,2.4,27.2-1.1,40.5-2.6,8.1-3.7,16.7-7.5,24.4-6.1,12-14.5,26.7-5.9,39.2,11.7,16.6,46.4.7,71.8,24.9,2.8,2.7,5.4,5.6,8.1,8.4,7.6,8.5,16.6,14.1,14.4,25-.8,5.1-3.6,11.5-1,16.4,4.2,7.5,14.2,10.5,19.4,17.3,5.1,6.9,8.2,27,6.1,35.7v.2h0Z"/>
</svg>