<?xml version="1.0" encoding="UTF-8"?>
<svg id="fr" xmlns="http://www.w3.org/2000/svg" version="1.1" viewBox="0 0 766.4 655.9">
  <defs>
    <style>
      .cls-1 {
        fill: none;
        stroke: #5928f9;
        stroke-miterlimit: 10;
        stroke-width: 6px;
      }
    </style>
  </defs>
  <path class="cls-1" d="M649.5,205.8c2.8-8.6,9.1-19.2,11.2-26.5,3.1-12.2-11.5-12.8-21-14.6-6.2-.8-12.2-2.1-18.4-3.1-22.9-.8-28.4-12.7-48.1-18.4-21-3.6-41.9-2.6-56.7-21.1-4.7-4.7-6.7-15.8-13.6-14.9-4.9.3-11.7,5.4-17.2,3.4-2.8-1.1-4.7-4.5-6-7.1-6.5-14.9-25.3-11.2-35.1-24.2-8.1-7.5-19.2-11.7-27.9-16.6-10.2-8-14.3-16.4-30.1-13.6-32.3,4.5-24.5,21.8-29.7,45.8-2.6,9.6-11.2,15.3-21,19.7-23.1,10.1-34,8.1-46.1,33-7,7.8-17.2,5.4-28.3,5.2-10.1-.5-21.1-3.7-27.8-11.4-6.5-7.5-22.7-17.7-29.4-5.7-2.1,7.5,2.8,16.7,4.5,24.9,2.1,10.1,7.8,21,4.5,31.2-2.9,7.1-13,4.2-19.2,3.7-15.1-1.9-27.9,5.7-41.7-5.4-15.8-12.2-24.2-8-41.6-3.4-11.7,2.1-27.6,1.6-31.5,15.4-1.6,5.7.3,11.5-.3,17.2-.5,7.6-2.1,19,6.3,23.4,4.2,2.9,11.4,3.7,17.2,5.4,5.7,1.6,11,4.1,16.1,7.1,7.6,4.1,15.4,9.7,22.6,11.7,4.5,1.1,9.1,1.8,13.2,4.2,8.1,4.5,13.2,11.5,18.8,18.2,6.2,4.7,5.8,10.4,8.1,19,3.7,19.5,17.5,29.4,32.5,40.8,3.9,3.1-.6,4.4.5,7.3,1.5,3.2,12,11.4,9.3,15.1-2.1.8-4.5-.3-6.5.2-4.1,3.9,4.4,14.6,8,19.5,3.9,5.4,9.9,12.2,12.7,17.5,1.3,3.4-6.2-4.1-8.3-3.9-5.4-2.3-7.6,8.3-8.9,13.8-1.6,8.1-4.1,20-3.7,27.1,0,5.7,1.8,7.8,1.6,12.3-1.5,6.7-4.4,13.8-5.5,21-2.1,10.6-5.2,24.4-10.2,34.9-3.2,8-10.1,14.9-11.5,23.2-.6,7.3,6.2,13.5,10.9,18.2,4.9,5.4,11.2,6.8,18.5,9.6,9.9,4.7,20.3,8.8,30.4,12.2,15.8,4.2,34.3,11,50.8,7.1,4.9-1,9.6-2.4,14.6-2.6,15.1,0,32.3,8.3,45,14.8,7.1,4.4,14,7.3,21.9,9.1,10.1,2.3,21.4,2.4,32,0,9.4-2.3,15.1-12.7,16.1-22.1,1-20.1,1.8-24.9,20-34.4,24.4-14.6,29.9-18.8,57.3-8.8,9.6,2.6,18.7.6,28.1,3.6,22.1,8.8,48.9,23.2,71.5,8.3,11.7-8.4,18.2-21.9,31-29.6,9.9-7.3,32.5-25.3,17.4-36.7-6.7-3.6-15.1-3.9-21.4-8.3-13.3-8.6-4.4-23.6-11.4-35.1-1.9-3.7-5.2-7-6.5-10.9-1.3-4.5,2.6-8.6,5.2-12,15.6-18.2-4.5-23.1-2.8-46.8.8-15.4-10.2-34.1-27.9-26.6-3.2,1.3-7.5,3.7-9.6,5-3.9,2.9-3.9.3-3.9-2.9,2.8-21.4,18.5-37.8,31-54.4,4.7-6.5,7.5-12,13-16.2,5.2-4.2,11.7-6.5,15.1-12.8,3.2-6.2,3.2-14,3.9-21,1.5-12.3,3.7-25.3,7.8-37.4v-.3h0l.2-.3Z"/>
</svg>