<?xml version="1.0" encoding="UTF-8"?>
<svg id="Calque_2" data-name="Calque 2" xmlns="http://www.w3.org/2000/svg" viewBox="0 0 408.71 281.02">
  <defs>
    <style>
      .cls-1 {
        stroke-width: 0px;
      }
    </style>
  </defs>
  <g id="Calque_1-2" data-name="Calque 1">
    <g>
      <path class="cls-1" d="M408.71,144.53c-2.29,7.91-5.99,14.97-13.91,18.37-4.04,1.73-8.66,3.01-13.01,3.02-92.72.17-185.44.15-278.16.1-11.41,0-20.15-4.93-24.74-15.57-4.23-9.79-2.47-19.04,4.53-27.1,4.28-4.92,9.88-7.52,16.33-8.24,1.19-.13,2.39-.16,3.59-.16,92.85,0,185.71,0,278.56,0,10.96,0,19.17,4.71,24.2,14.53,1.14,2.22,1.76,4.7,2.61,7.07v7.98Z"/>
      <path class="cls-1" d="M229.92,51.09c-41.91,0-83.83.02-125.74-.01-14.59-.01-25.16-8.62-27.09-21.89-1.96-13.48,6.76-25.91,20.17-28.58,2.33-.46,4.76-.59,7.14-.59C188.09,0,271.78,0,355.48,0c13.46,0,23.22,6.83,26.65,18.54,4.17,14.22-5.1,29.3-19.72,31.93-2.6.47-5.29.58-7.94.58-41.51.03-83.03.02-124.54.02Z"/>
      <path class="cls-1" d="M185.51,229.91c27.14,0,54.29-.04,81.43.02,12.01.02,21.64,6.49,25.18,16.67,5.92,16.98-5.53,33.43-23.94,34.37-.8.04-1.6.03-2.39.03-53.76,0-107.51.01-161.27,0-12.71,0-22.37-6.18-26.15-16.58-6-16.46,5.38-33.62,22.92-34.41,5.31-.24,10.64-.09,15.96-.09,22.75,0,45.51,0,68.26,0Z"/>
      <path class="cls-1" d="M51.08,26.82c.14,13.26-11.89,24.13-26.88,24.27C12.19,51.2.13,39.74,0,28.1-.17,12.18,10.58.3,25.36.09c14.44-.21,25.57,11.35,25.73,26.73Z"/>
      <path class="cls-1" d="M51.09,140.37c1.42,12.57-11.7,25.92-23.48,25.74-15.8-.25-27.74-11.24-27.56-25.84.17-13.8,11.89-25.29,25.67-25.23,15.6.06,26.56,14.68,25.37,25.33Z"/>
      <path class="cls-1" d="M51.09,255.48c1.42,11.51-10.72,25.59-23.24,25.54-15.84-.07-27.81-11-27.79-25.62.01-13.76,11.61-25.35,25.45-25.41,14-.06,25.59,11.48,25.59,25.49Z"/>
    </g>
  </g>
</svg>