<?xml version="1.0" encoding="UTF-8"?>
<svg id="Calque_2" data-name="Calque 2" xmlns="http://www.w3.org/2000/svg" viewBox="0 0 347.9 384">
  <defs>
    <style>
      .cls-1 {
        stroke-width: 0px;
      }
    </style>
  </defs>
  <g id="Calque_1-2" data-name="Calque 1">
    <g>
      <path class="cls-1" d="M165.66,0c5.5,0,11,0,16.5,0,.83.22,1.64.54,2.48.65,33.57,4.34,58.74,21.36,75.01,50.89,9.95,18.05,14.16,37.55,10.16,58.18-1.18,6.05-3.26,11.93-4.95,17.97.57.22,1.02.43,1.48.58,24.48,8.17,48.97,16.33,73.45,24.51,6.93,2.32,8.03,3.89,8.03,11.08,0,69.83-.03,139.66.07,209.49,0,4.65-1.14,8.26-5.23,10.66h-4.5c-.66-.31-1.3-.69-1.99-.92-34.43-11.5-68.85-23.03-103.32-34.4-2.05-.68-4.71-.68-6.76,0-29.97,9.83-59.89,19.8-89.8,29.81-5.02,1.68-9.93,3.67-14.89,5.52h-6c-1.4-.69-2.74-1.55-4.2-2.04-34.66-11.58-69.34-23.13-104.01-34.68C1.39,345.34,0,343.4,0,337.1,0,266.87,0,196.65,0,126.43c0-8.52,4.2-11.57,12.24-8.89,22.49,7.49,44.97,14.99,67.46,22.48,3.25,1.08,6.52,2.12,9.97,3.24-.09-.68-.06-.94-.15-1.14-.71-1.6-1.47-3.17-2.16-4.77-6.8-15.82-12.13-31.75-10.43-49.56,3.53-36.93,30.09-71.06,65.51-82.41,7.54-2.42,15.48-3.61,23.24-5.37ZM110.91,366.04v-4.92c0-53.36-.33-106.73.24-160.08.14-13.07-1.4-24.93-9.62-35.3-1.37-1.73-3.17-3.6-5.15-4.28-25.87-8.78-51.81-17.36-77.73-25.98-1.1-.37-2.24-.64-3.64-1.03,0,1.09,0,1.71,0,2.33,0,64.73.02,129.47-.08,194.2,0,2.81,1.24,3.54,3.46,4.27,21.2,6.99,42.38,14.06,63.56,21.11,9.55,3.18,19.1,6.38,28.97,9.67ZM332.69,366.01c.06-1.32.14-2.19.14-3.06,0-64.48-.01-128.96.07-193.44,0-2.68-.99-3.69-3.32-4.44-11.51-3.71-22.98-7.54-34.46-11.36-12.04-4.01-24.06-8.05-36.2-12.12-.5.88-.87,1.5-1.22,2.14-6.37,11.71-12.8,23.39-19.05,35.17-1,1.88-1.66,4.18-1.67,6.29-.09,48.36-.07,96.72-.07,145.08,0,1.23,0,2.46,0,3.84,32.01,10.66,63.8,21.25,95.77,31.9ZM173.8,250.1c1.04-1.47,1.76-2.45,2.44-3.45,6.4-9.53,12.85-19.02,19.18-28.6,19.24-29.14,38.68-58.16,52.83-90.28,5.87-13.33,9.5-26.94,7.34-41.8-4.97-34.15-30.44-61.62-64.62-69.18-32.67-7.22-67.53,7.1-85.97,35.6-10.21,15.79-15.25,33.08-12.77,51.97,1.46,11.12,5.99,21.36,10.85,31.36,19.61,40.33,45.85,76.57,70.72,114.38ZM126.05,365.84c.8-.19,1.29-.26,1.74-.42,30.55-10.16,61.08-20.36,91.65-30.43,2.46-.81,2.43-2.3,2.43-4.25-.02-40.37-.02-80.74-.03-121.11,0-.88-.17-1.77-.33-3.26-.97,1.4-1.54,2.2-2.09,3.02-12.77,19.24-25.53,38.48-38.29,57.72-4.22,6.37-10.18,6.43-14.34.16-12.76-19.24-25.52-38.48-38.29-57.71-.62-.93-1.3-1.83-2.46-3.45v159.73Z"/>
      <path class="cls-1" d="M173.88,149.39c-29.38-.01-53.18-23.77-53.21-53.1-.03-29.41,24.09-53.49,53.46-53.35,29.27.14,53.09,24.13,53.03,53.4-.06,29.33-23.9,53.06-53.27,53.05ZM174,134.36c21.08-.04,38.16-17.12,38.15-38.16,0-20.98-17.15-38.2-38.14-38.29-21.04-.09-38.43,17.35-38.34,38.46.08,21.01,17.25,38.03,38.33,37.99Z"/>
    </g>
  </g>
</svg>